<?xml version="1.0" encoding="utf-8"?>
<!-- Generator: Adobe Illustrator 27.5.0, SVG Export Plug-In . SVG Version: 6.00 Build 0)  -->
<svg version="1.1" id="图层_1" xmlns="http://www.w3.org/2000/svg" xmlns:xlink="http://www.w3.org/1999/xlink" x="0px" y="0px"
	 viewBox="0 0 2041.3 11094.3" style="enable-background:new 0 0 2041.3 11094.3;" xml:space="preserve">
<style type="text/css">
	.st0{fill:#FFDD50;}
	.st1{fill:#FFFFFF;}
	.st2{fill:#D69276;}
	.st3{fill:#E16531;}
	.st4{fill:#2C2C2C;}
	.st5{fill:#5CA806;}
	.st6{fill:#4EA333;}
</style>
<g>
	<g>
		<path class="st0" d="M1967,27.9v1895.2H71.8V27.9H1967z"/>
		<path d="M1453.5,1080.2c-181.5,0-328.3,146.9-328.3,328.3s146.9,328.7,328,328.7c0,0,0,0,0.4,0c181.5,0,328.3-146.9,328.3-328.3
			C1781.8,1227.4,1634.9,1080.2,1453.5,1080.2C1453.9,1080.2,1453.5,1080.2,1453.5,1080.2z"/>
		<path d="M586.4,211.9C404.9,211.9,258,359.2,258,540.6s146.9,328.7,328.3,328.7s328.3-147.2,328.3-328.7S767.5,211.9,586.4,211.9z
			"/>
		<path d="M1414.4,1911.9V39c0-21.6,17.5-39,39-39c21.6,0,39,17.5,39,39v1872.9c0,21.6-17.5,39-39,39
			C1431.9,1951,1414.4,1933.5,1414.4,1911.9z"/>
		<path d="M43.5,540.6c0-21.6,17.5-39,39-39h1873.3c21.6,0,39,17.5,39,39l0,0c0,21.6-17.5,39-39,39l0,0H82.9
			C61,579.7,43.5,562.2,43.5,540.6z"/>
		<path d="M547.3,1911.9V39c0-21.6,17.5-39,39-39s39,17.5,39,39v1872.9c0,21.6-17.5,39-39,39C564.8,1951,547.3,1933.5,547.3,1911.9z
			"/>
		<path d="M43.5,1408.5c0-21.6,17.5-39,39-39h1873.3c21.6,0,39,17.5,39,39s-17.5,39-39,39H82.9C61,1447.5,43.5,1430.1,43.5,1408.5z"
			/>
		<path class="st1" d="M1453.5,252.1c-159.1,0-288.2,129-288.2,288.2s129,288.2,288.2,288.2s288.2-129,288.2-288.2
			S1612.6,252.1,1453.5,252.1L1453.5,252.1z"/>
		<path d="M1703.7,540.6c0,137.9-112.3,250.2-250.2,250.2s-250.2-112.3-250.2-250.2s112.3-250.2,250.2-250.2
			S1703.7,402.3,1703.7,540.6 M1781.8,540.6c0-181.5-146.9-328.7-328.3-328.7s-328.3,147.2-328.3,328.7s146.9,328.7,328.3,328.7
			C1634.9,869,1781.8,721.7,1781.8,540.6z"/>
		<path class="st1" d="M586.4,1120.7c-158.8,0-287.4,129-287.4,287.8c0,158.8,128.7,287.8,287.4,287.8s287.8-128.7,287.8-287.8
			S745.1,1120.7,586.4,1120.7L586.4,1120.7L586.4,1120.7z"/>
		<path d="M836.2,1408.5c0,137.9-112.3,250.2-250.2,250.2s-250.2-112.3-250.2-250.2s112.3-250.2,250.2-250.2
			S836.2,1270.5,836.2,1408.5 M914.3,1408.5c0-181.5-146.9-328.7-328.3-328.7S257.7,1227,257.7,1408.5s146.9,328.7,328.3,328.7
			S914.3,1589.9,914.3,1408.5z"/>
	</g>
	<g>
		<path class="st2" d="M1485.8,6004.7H1819v-74h-333.2v-188.1c-11.9,2.2-24.2,3.3-37.2,3.3s-24.9-1.5-37.2-3.3v188.1h-188.1
			c2.2,11.9,3.3,24.2,3.3,37.2c0,12.6-1.5,24.9-3.3,37.2h188.1v333.2h74v-333.5H1485.8z M1004.7,6189.8c-12.6,0-24.9-1.5-37.2-3.3
			v151.3h74v-151.3C1030,6188.4,1017.7,6189.8,1004.7,6189.8z M597.9,4710h-74v151.3c11.9-2.2,24.2-3.3,37.2-3.3s24.9,1.5,37.2,3.3
			V4710H597.9z M342.1,5042.7H190.7v74h151.3c-2.2-11.9-3.3-24.2-3.3-37.2C338.7,5067.3,340.2,5055,342.1,5042.7z M1667.7,5560.7
			H1819v-74h-151.3c2.2,11.9,3.3,24.2,3.3,37.2C1671,5536.5,1669.5,5548.8,1667.7,5560.7z M786,6004.7c-2.2-11.9-3.3-24.2-3.3-37.2
			c0-12.6,1.5-24.9,3.3-37.2H597.9v-370h370v188.1c11.9-2.2,24.2-3.3,37.2-3.3c13,0,24.9,1.5,37.2,3.3v-188.1h188.1
			c-2.2-11.9-3.3-24.2-3.3-37.2c0-12.6,1.5-24.9,3.3-37.2h-188.1v-370h370v188.1c11.9-2.2,24.2-3.3,37.2-3.3c13,0,24.9,1.5,37.2,3.3
			V5116H1819v-74h-333.2v-333.2h-74V5042h-370v-333.2h-74V5042H779.7c2.2,11.9,3.3,24.2,3.3,37.2c0,12.6-1.5,24.9-3.3,37.2h188.1
			v370h-370v-188.1c-11.9,2.2-24.2,3.3-37.2,3.3c-13,0-24.9-1.5-37.2-3.3v188.1H190.4v74h333.2v370H190.4v74h333.2v333.2h74v-332.8
			H786z"/>
		<path class="st3" d="M1967,6343.4V4704c0-78.5-64-142-142-142H185.5c-78.5,0-142,64-142,142v1639.4c0,78.5,64,142,142,142h1639
			C1903,6485.8,1967,6421.9,1967,6343.4z M1485.8,6337.8H190.7V4710H1819v1627.9L1485.8,6337.8L1485.8,6337.8z"/>
		<path class="st4" d="M1226.7,5967.9c0-12.6-1.5-24.9-3.3-37.2c-15.6-92.6-88.9-166.2-181.8-181.8c-11.9-2.2-24.2-3.3-37.2-3.3
			c-13,0-24.9,1.5-37.2,3.3c-92.6,15.6-166.2,88.9-181.8,181.8c-2.2,11.9-3.3,24.2-3.3,37.2c0,12.6,1.5,24.9,3.3,37.2
			c15.6,92.6,88.9,166.2,181.8,181.8c11.9,2.2,24.2,3.3,37.2,3.3c13,0,24.9-1.5,37.2-3.3c92.6-15.6,166.2-88.9,181.8-181.8
			C1225.5,5992.8,1226.7,5980.5,1226.7,5967.9z M1485.8,5742.5c92.6-15.6,166.2-88.9,181.8-181.8c2.2-11.9,3.3-24.2,3.3-37.2
			c0-12.6-1.5-24.9-3.3-37.2c-15.6-92.6-88.9-166.2-181.8-181.8c-11.9-2.2-24.2-3.3-37.2-3.3s-24.9,1.5-37.2,3.3
			c-92.6,15.6-166.2,88.9-181.8,181.8c-2.2,11.9-3.3,24.2-3.3,37.2c0,12.6,1.5,24.9,3.3,37.2c15.6,92.6,88.9,166.2,181.8,181.8
			c11.9,2.2,24.2,3.3,37.2,3.3S1473.9,5744.4,1485.8,5742.5z M779.7,5116.7c2.2-11.9,3.3-24.2,3.3-37.2c0-12.6-1.5-24.9-3.3-37.2
			c-15.6-92.6-88.9-166.2-181.8-181.8c-11.9-2.2-24.2-3.3-37.2-3.3c-13,0-24.9,1.5-37.2,3.3c-92.6,15.6-166.2,88.9-181.8,181.8
			c-2.2,11.9-3.3,24.2-3.3,37.2c0,12.6,1.5,24.9,3.3,37.2c15.6,92.6,88.9,166.2,181.8,181.8c11.9,2.2,24.2,3.3,37.2,3.3
			c13,0,24.9-1.5,37.2-3.3C690.5,5282.9,763.7,5209.7,779.7,5116.7z M523.9,5222.3c-51.7-13.4-92.2-53.9-105.6-105.6
			c-3-11.9-5.2-24.2-5.2-37.2s2.2-25.3,5.2-37.2c13.4-51.7,53.9-92.2,105.6-105.6c11.9-3,24.2-5.2,37.2-5.2s25.3,2.2,37.2,5.2
			c51.7,13.4,92.2,53.9,105.6,105.6c3,11.9,5.2,24.2,5.2,37.2s-2.2,25.3-5.2,37.2c-13.4,51.7-53.9,92.2-105.6,105.6
			c-11.9,3-24.2,5.2-37.2,5.2S535.8,5225.7,523.9,5222.3z"/>
	</g>
	<g>
		<path class="st5" d="M2041.3,10073.6c0,563.7-457,1020.7-1020.7,1020.7S0,10637.3,0,10073.6c0-563.7,457-1020.7,1020.7-1020.7
			S2041.3,9509.9,2041.3,10073.6z"/>
		<path class="st1" d="M1330.4,10148c-129.4,0-234.3,104.9-234.3,233.9c0,129.4,104.9,234.3,233.9,234.3
			c129.4,0,234.3-104.9,234.3-233.9c0,0,0,0,0-0.4C1564.7,10252.8,1459.8,10148,1330.4,10148L1330.4,10148L1330.4,10148z"/>
		<path class="st1" d="M712.1,9528.9c-129.4,0-234.3,104.9-234.3,233.9c0,129.4,104.9,234.3,233.9,234.3s234.3-104.9,234.3-233.9
			l0,0C946.3,9633.7,841.4,9528.9,712.1,9528.9z"/>
		<path class="st1" d="M1302.9,10741V9405.8c0-15.2,12.6-27.9,27.9-27.9c15.2,0,27.9,12.6,27.9,27.9V10741
			c0,15.2-12.6,27.9-27.9,27.9C1315.2,10768.9,1302.9,10756.3,1302.9,10741z"/>
		<path class="st1" d="M325.4,9763.1c0-15.2,12.6-27.9,27.9-27.9h1335.2c15.2,0,27.9,12.6,27.9,27.9c0,15.2-12.6,27.9-27.9,27.9
			H353.2C338,9791,325.4,9778.4,325.4,9763.1z"/>
		<path class="st1" d="M684.5,10741V9405.8c0-15.2,12.3-27.9,27.9-27.9c15.2,0,27.9,12.3,27.9,27.9l0,0V10741
			c0,15.2-12.3,27.9-27.9,27.9S684.5,10756.3,684.5,10741L684.5,10741z"/>
		<path class="st1" d="M325.4,10381.8c0-15.2,12.6-27.9,27.9-27.9h1335.2c15.2,0,27.9,12.6,27.9,27.9s-12.3,27.9-27.9,27.9H353.2
			C338,10409.7,325.4,10397.1,325.4,10381.8z"/>
		<path class="st6" d="M1330.8,9557.5c-113.4,0-205.6,91.8-205.6,205.2c0,113.4,91.8,205.6,205.2,205.6s205.6-91.8,205.6-205.2l0,0
			C1536,9649.3,1444.2,9557.5,1330.8,9557.5L1330.8,9557.5z"/>
		<path class="st1" d="M1508.9,9763.1c0,98.5-79.9,178.5-178.5,178.1c-98.5,0-178.5-79.9-178.1-178.5c0-98.5,79.9-178.1,178.5-178.1
			C1428.9,9584.6,1508.9,9664.6,1508.9,9763.1 M1564.7,9763.1c0-129.4-104.9-233.9-234.3-233.9s-233.9,104.9-233.9,234.3
			c0,129,104.9,233.9,233.9,233.9C1459.8,9997.4,1564.7,9892.5,1564.7,9763.1L1564.7,9763.1z"/>
		<path class="st6" d="M712.1,10177c-113.4,0-205.2,91.8-205.2,204.9c0,113.4,91.8,205.2,204.9,205.2
			c113.4,0,205.2-91.8,205.2-204.9l0,0C917.3,10268.8,825.5,10177,712.1,10177L712.1,10177z"/>
		<path class="st1" d="M890.5,10381.8c0,98.5-79.9,178.5-178.5,178.1c-98.5,0-178.5-79.9-178.1-178.5c0-98.5,79.9-178.1,178.5-178.1
			C810.6,10203.7,890.5,10283.7,890.5,10381.8 M946.3,10381.8c0-129.4-104.9-233.9-234.3-233.9s-233.9,104.9-233.9,234.3
			c0,129,104.9,233.9,233.9,233.9C841.4,10616.1,946.3,10511.2,946.3,10381.8L946.3,10381.8L946.3,10381.8z"/>
	</g>
</g>
</svg>
