<?xml version="1.0" encoding="utf-8"?>
<!-- Generator: Adobe Illustrator 27.5.0, SVG Export Plug-In . SVG Version: 6.00 Build 0)  -->
<svg version="1.1" id="图层_1" xmlns="http://www.w3.org/2000/svg" xmlns:xlink="http://www.w3.org/1999/xlink" x="0px" y="0px"
	 viewBox="0 0 3026 614.7" style="enable-background:new 0 0 3026 614.7;" xml:space="preserve">
<style type="text/css">
	.st0{fill:#FFDD50;}
	.st1{fill:#FFFFFF;}
	.st2{fill:#D69276;}
	.st3{fill:#E16531;}
	.st4{fill:#2C2C2C;}
	.st5{fill:#5CA806;}
	.st6{fill:#4EA333;}
</style>
<g>
	<path class="st0" d="M21.6,54h509.7v509.7H21.6V54z"/>
	<path d="M304.6,192.1c0,48.8,39.5,88.3,88.3,88.3c48.8,0,88.4-39.5,88.4-88.2c0,0,0,0,0-0.1c0-48.8-39.5-88.3-88.3-88.3
		C344.2,103.8,304.6,143.3,304.6,192.1C304.6,192,304.6,192.1,304.6,192.1z"/>
	<path d="M71.1,425.3c0,48.8,39.6,88.3,88.4,88.3s88.4-39.5,88.4-88.3s-39.6-88.3-88.4-88.3S71.1,376.6,71.1,425.3z"/>
	<path d="M528.3,202.6H24.6c-5.8,0-10.5-4.7-10.5-10.5s4.7-10.5,10.5-10.5h503.7c5.8,0,10.5,4.7,10.5,10.5S534.1,202.6,528.3,202.6z
		"/>
	<path d="M159.5,571.3c-5.8,0-10.5-4.7-10.5-10.5V57c0-5.8,4.7-10.5,10.5-10.5c0,0,0,0,0,0c5.8,0,10.5,4.7,10.5,10.5c0,0,0,0,0,0
		v503.7C170,566.6,165.3,571.3,159.5,571.3z"/>
	<path d="M528.3,435.8H24.6c-5.8,0-10.5-4.7-10.5-10.5c0-5.8,4.7-10.5,10.5-10.5h503.7c5.8,0,10.5,4.7,10.5,10.5
		C538.8,431.1,534.1,435.8,528.3,435.8z"/>
	<path d="M392.9,571.3c-5.8,0-10.5-4.7-10.5-10.5V57c0-5.8,4.7-10.5,10.5-10.5c5.8,0,10.5,4.7,10.5,10.5v503.7
		C403.4,566.6,398.7,571.3,392.9,571.3z"/>
	<path class="st1" d="M81.9,192.1c0,42.8,34.7,77.5,77.5,77.5s77.5-34.7,77.5-77.5c0-42.8-34.7-77.5-77.5-77.5
		C116.6,114.6,81.9,149.3,81.9,192.1C81.9,192.1,81.9,192.1,81.9,192.1z"/>
	<path d="M159.5,124.8c37.1,0,67.3,30.2,67.3,67.3s-30.2,67.3-67.3,67.3s-67.3-30.2-67.3-67.3S122.3,124.8,159.5,124.8 M159.5,103.8
		c-48.8,0-88.4,39.5-88.4,88.3s39.6,88.3,88.4,88.3c48.8,0,88.4-39.5,88.4-88.3C247.8,143.3,208.2,103.8,159.5,103.8z"/>
	<path class="st1" d="M315.5,425.3c0,42.7,34.7,77.3,77.4,77.3c42.7,0,77.4-34.6,77.4-77.3c0-42.7-34.6-77.4-77.4-77.4
		S315.5,382.6,315.5,425.3C315.5,425.3,315.5,425.3,315.5,425.3L315.5,425.3z"/>
	<path d="M392.9,358.1c37.1,0,67.3,30.2,67.3,67.3s-30.2,67.3-67.3,67.3c-37.1,0-67.3-30.2-67.3-67.3S355.8,358.1,392.9,358.1
		 M392.9,337.1c-48.8,0-88.4,39.5-88.4,88.3s39.6,88.3,88.4,88.3s88.4-39.5,88.4-88.3C481.3,376.6,441.7,337.1,392.9,337.1z"/>
</g>
<g>
	<path class="st2" d="M1629,183.4V93.8h-19.9v89.6h-50.6c0.6,3.2,0.9,6.5,0.9,10s-0.4,6.7-0.9,10h50.6v50.6c3.2-0.6,6.5-0.9,10-0.9
		c3.4,0,6.7,0.4,10,0.9v-50.6h89.6v-19.9H1629z M1678.8,312.8c0,3.4-0.4,6.7-0.9,10h40.7v-19.9h-40.7
		C1678.4,306,1678.8,309.3,1678.8,312.8z M1280.8,422.2v19.9h40.7c-0.6-3.2-0.9-6.5-0.9-10s0.4-6.7,0.9-10H1280.8z M1370.3,491v40.7
		h19.9V491c-3.2,0.6-6.5,0.9-10,0.9C1376.9,491.9,1373.6,491.5,1370.3,491z M1509.6,134.5V93.8h-19.9v40.7c3.2-0.6,6.5-0.9,10-0.9
		C1503.1,133.6,1506.4,134,1509.6,134.5z M1629,371.6c-3.2,0.6-6.5,0.9-10,0.9c-3.4,0-6.7-0.4-10-0.9v50.6h-99.5v-99.5h50.6
		c-0.6-3.2-0.9-6.5-0.9-10s0.4-6.7,0.9-10h-50.6v-50.6c-3.2,0.6-6.5,0.9-10,0.9c-3.4,0-6.7-0.4-10-0.9v50.6h-99.5v-99.5h50.6
		c-0.6-3.2-0.9-6.5-0.9-10s0.4-6.7,0.9-10h-50.6V93.8h-19.9v89.6h-89.6v19.9h89.6v99.5h-89.6v19.9h89.6v50.6c3.2-0.6,6.5-0.9,10-0.9
		c3.4,0,6.7,0.4,10,0.9v-50.6h99.5v99.5h-50.6c0.6,3.2,0.9,6.5,0.9,10s-0.4,6.7-0.9,10h50.6v89.6h19.9v-89.6h99.5v89.6h19.9v-89.6
		h89.6v-19.9H1629V371.6z"/>
	<path class="st3" d="M1720.1,54h-440.9c-21.1,0-38.2,17.2-38.2,38.2v440.9c0,21.1,17.2,38.2,38.2,38.2h440.9
		c21.1,0,38.2-17.2,38.2-38.2V92.3C1758.4,71.2,1741.2,54,1720.1,54z M1718.6,183.4v348.3h-437.8V93.8h437.8V183.4z"/>
	<path class="st4" d="M1619.1,253.1c-3.4,0-6.7,0.4-10,0.9c-24.9,4.2-44.7,23.9-48.9,48.9c-0.6,3.2-0.9,6.5-0.9,10s0.4,6.7,0.9,10
		c4.2,24.9,23.9,44.7,48.9,48.9c3.2,0.6,6.5,0.9,10,0.9c3.4,0,6.7-0.4,10-0.9c24.9-4.2,44.7-23.9,48.9-48.9c0.6-3.2,0.9-6.5,0.9-10
		s-0.4-6.7-0.9-10c-4.2-24.9-23.9-44.7-48.9-48.9C1625.8,253.4,1622.5,253.1,1619.1,253.1z M1558.5,183.4
		c-4.2-24.9-23.9-44.7-48.9-48.9c-3.2-0.6-6.5-0.9-10-0.9c-3.4,0-6.7,0.4-10,0.9c-24.9,4.2-44.7,23.9-48.9,48.9
		c-0.6,3.2-0.9,6.5-0.9,10s0.4,6.7,0.9,10c4.2,24.9,23.9,44.7,48.9,48.9c3.2,0.6,6.5,0.9,10,0.9c3.4,0,6.7-0.4,10-0.9
		c24.9-4.2,44.7-23.9,48.9-48.9c0.6-3.2,0.9-6.5,0.9-10S1559,186.6,1558.5,183.4z M1390.2,373.3c-3.2-0.6-6.5-0.9-10-0.9
		c-3.4,0-6.7,0.4-10,0.9c-24.9,4.2-44.7,23.9-48.9,48.9c-0.6,3.2-0.9,6.5-0.9,10s0.4,6.7,0.9,10c4.2,24.9,23.9,44.7,48.9,48.9
		c3.2,0.6,6.5,0.9,10,0.9c3.4,0,6.7-0.4,10-0.9c24.9-4.2,44.7-23.9,48.9-48.9c0.6-3.2,0.9-6.5,0.9-10s-0.4-6.7-0.9-10
		C1434.9,397.3,1415.2,377.6,1390.2,373.3z M1418.6,442.1c-3.6,13.9-14.5,24.8-28.4,28.4c-3.2,0.8-6.5,1.4-10,1.4s-6.8-0.6-10-1.4
		c-13.9-3.6-24.8-14.5-28.4-28.4c-0.8-3.2-1.4-6.5-1.4-10s0.6-6.8,1.4-10c3.6-13.9,14.5-24.8,28.4-28.4c3.2-0.8,6.5-1.4,10-1.4
		s6.8,0.6,10,1.4c13.9,3.6,24.8,14.5,28.4,28.4c0.8,3.2,1.4,6.5,1.4,10S1419.5,438.9,1418.6,442.1z"/>
</g>
<g>
	<path class="st5" d="M2723.3,34c151.6,0,274.5,122.9,274.5,274.5S2874.9,583,2723.3,583c-151.6,0-274.5-122.9-274.5-274.5
		S2571.7,34,2723.3,34z"/>
	<path class="st1" d="M2743.3,225.2c0,34.8,28.2,63,62.9,63c34.8,0,63-28.2,63-62.9c0-34.8-28.2-63-62.9-63c0,0,0,0-0.1,0
		C2771.5,162.2,2743.3,190.4,2743.3,225.2C2743.3,225.2,2743.3,225.2,2743.3,225.2L2743.3,225.2z"/>
	<path class="st1" d="M2576.8,391.5c0,34.8,28.2,63,62.9,63c34.8,0,63-28.2,63-62.9s-28.2-63-62.9-63c0,0,0,0,0,0
		C2605,328.5,2576.8,356.7,2576.8,391.5z"/>
	<path class="st1" d="M2902.8,232.6h-359.1c-4.1,0-7.5-3.4-7.5-7.5c0-4.1,3.4-7.5,7.5-7.5h359.1c4.1,0,7.5,3.4,7.5,7.5
		C2910.3,229.3,2906.9,232.6,2902.8,232.6z"/>
	<path class="st1" d="M2639.8,495.5c-4.1,0-7.5-3.4-7.5-7.5V128.9c0-4.1,3.4-7.5,7.5-7.5s7.5,3.4,7.5,7.5V488
		C2647.3,492.1,2643.9,495.5,2639.8,495.5z"/>
	<path class="st1" d="M2902.8,398.9h-359.1c-4.1,0-7.5-3.3-7.5-7.5c0-4.1,3.3-7.5,7.5-7.5c0,0,0,0,0,0h359.1c4.1,0,7.5,3.3,7.5,7.5
		C2910.3,395.6,2906.9,398.9,2902.8,398.9C2902.8,398.9,2902.8,398.9,2902.8,398.9z"/>
	<path class="st1" d="M2806.2,495.5c-4.1,0-7.5-3.4-7.5-7.5V128.9c0-4.1,3.4-7.5,7.5-7.5c4.1,0,7.5,3.3,7.5,7.5V488
		C2813.7,492.1,2810.3,495.5,2806.2,495.5z"/>
	<path class="st6" d="M2584.5,225.1c0,30.5,24.7,55.3,55.2,55.3c30.5,0,55.3-24.7,55.3-55.2s-24.7-55.3-55.2-55.3c0,0,0,0,0,0
		C2609.2,169.9,2584.5,194.6,2584.5,225.1L2584.5,225.1z"/>
	<path class="st1" d="M2639.8,177.2c26.5,0,48,21.5,47.9,48c0,26.5-21.5,48-48,47.9c-26.5,0-47.9-21.5-47.9-48
		C2591.8,198.7,2613.3,177.2,2639.8,177.2 M2639.8,162.2c-34.8,0-62.9,28.2-62.9,63s28.2,62.9,63,62.9c34.7,0,62.9-28.2,62.9-62.9
		C2702.8,190.4,2674.6,162.2,2639.8,162.2C2639.8,162.2,2639.8,162.2,2639.8,162.2z"/>
	<path class="st6" d="M2751.1,391.5c0,30.5,24.7,55.2,55.1,55.2c30.5,0,55.2-24.7,55.2-55.1c0-30.5-24.7-55.2-55.1-55.2c0,0,0,0,0,0
		C2775.8,336.3,2751.1,361,2751.1,391.5L2751.1,391.5z"/>
	<path class="st1" d="M2806.2,343.5c26.5,0,48,21.5,47.9,48c0,26.5-21.5,48-48,47.9c-26.5,0-47.9-21.5-47.9-48
		C2758.3,365,2779.8,343.5,2806.2,343.5 M2806.2,328.5c-34.8,0-62.9,28.2-62.9,63s28.2,62.9,63,62.9c34.7,0,62.9-28.2,62.9-62.9
		C2869.2,356.7,2841,328.5,2806.2,328.5L2806.2,328.5L2806.2,328.5z"/>
</g>
</svg>
